<svg width="36" height="36" viewBox="0 0 36 36" fill="none" xmlns="http://www.w3.org/2000/svg">
<path d="M18 36C27.9411 36 36 27.9411 36 18C36 8.05887 27.9411 0 18 0C8.05887 0 0 8.05887 0 18C0 27.9411 8.05887 36 18 36Z" fill="#FFCC4D"/>
<path d="M6.99909 17C6.84909 17 6.69609 16.966 6.55309 16.895C6.05909 16.648 5.85909 16.047 6.10609 15.553C6.15809 15.448 7.42409 13 11.0001 13C14.5771 13 15.8421 15.449 15.8941 15.553C16.1411 16.047 15.9401 16.648 15.4471 16.895C14.9561 17.142 14.3621 16.944 14.1111 16.459C14.0671 16.378 13.2801 15 11.0001 15C8.68309 15 7.90109 16.433 7.89409 16.447C7.71909 16.798 7.36609 17 6.99909 17ZM29.0001 17C29.1501 17 29.3031 16.966 29.4461 16.895C29.9401 16.648 30.1401 16.047 29.8931 15.553C29.8411 15.448 28.5751 13 24.9991 13C21.4221 13 20.1571 15.449 20.1051 15.553C19.8581 16.047 20.0591 16.648 20.5521 16.895C21.0431 17.142 21.6371 16.944 21.8881 16.459C21.9321 16.378 22.7191 15 24.9991 15C27.3161 15 28.0981 16.433 28.1051 16.447C28.2801 16.798 28.6331 17 29.0001 17ZM29.5031 23.52C29.8261 22.771 29.9641 22.263 29.9691 22.243C30.1031 21.709 29.7791 21.168 29.2441 21.033C28.7081 20.897 28.1671 21.221 28.0291 21.756C27.9551 22.051 26.0811 29 18.0001 29C9.91909 29 8.04509 22.051 7.97009 21.755C7.83209 21.221 7.29109 20.897 6.75509 21.032C6.22109 21.167 5.89709 21.708 6.03009 22.242C6.05209 22.33 8.33109 31 18.0001 31C19.6501 31 21.0701 30.734 22.3151 30.315C26.6451 28.857 28.6891 25.405 29.5031 23.52Z" fill="#664500"/>
<path d="M32.407 26.6811L29.451 23.6301C29.451 23.6301 28.771 23.1921 28.178 24.1981C27.398 25.5201 26.103 27.1331 24.244 28.3691C23.463 28.8881 22.105 29.5581 21.547 29.6871C20.812 29.8561 21.159 30.6511 21.159 30.6511C21.744 30.5241 22.21 30.3501 22.21 30.3501L22.506 30.6461L25.232 33.3721C26.96 35.1001 30.232 35.3721 32.232 33.3721C34.232 31.3721 34.136 28.4101 32.407 26.6811Z" fill="#E75B70"/>
<path d="M29.915 31.0741C30.128 30.8611 30.128 30.5161 29.915 30.3031L26.286 26.6741L25.49 27.4221L29.143 31.0751C29.356 31.2871 29.702 31.2871 29.915 31.0741Z" fill="#DE3146"/>
</svg>
