<svg width="72" height="72" viewBox="0 0 72 72" fill="none" xmlns="http://www.w3.org/2000/svg">
<path d="M60.75 11.8125H11.25C10.2061 11.8137 9.20525 12.2289 8.46708 12.9671C7.72892 13.7052 7.31369 14.7061 7.3125 15.75V56.25C7.31369 57.2939 7.72892 58.2948 8.46708 59.0329C9.20525 59.7711 10.2061 60.1863 11.25 60.1875H60.75C61.7939 60.1863 62.7948 59.7711 63.5329 59.0329C64.2711 58.2948 64.6863 57.2939 64.6875 56.25V15.75C64.6863 14.7061 64.2711 13.7052 63.5329 12.9671C62.7948 12.2289 61.7939 11.8137 60.75 11.8125V11.8125ZM61.3125 56.25C61.3123 56.3991 61.2529 56.5421 61.1475 56.6475C61.0421 56.7529 60.8991 56.8123 60.75 56.8125H11.25C11.1009 56.8123 10.9579 56.7529 10.8525 56.6475C10.7471 56.5421 10.6877 56.3991 10.6875 56.25V15.75C10.6877 15.6009 10.7471 15.4579 10.8525 15.3525C10.9579 15.2471 11.1009 15.1877 11.25 15.1875H60.75C60.8991 15.1877 61.0421 15.2471 61.1475 15.3525C61.2529 15.4579 61.3123 15.6009 61.3125 15.75V56.25ZM48.9375 24.75C48.9375 28.1812 47.5744 31.4719 45.1482 33.8982C42.7219 36.3244 39.4312 37.6875 36 37.6875C32.5688 37.6875 29.2781 36.3244 26.8518 33.8982C24.4256 31.4719 23.0625 28.1812 23.0625 24.75C23.0625 24.3024 23.2403 23.8732 23.5568 23.5568C23.8732 23.2403 24.3024 23.0625 24.75 23.0625C25.1976 23.0625 25.6268 23.2403 25.9432 23.5568C26.2597 23.8732 26.4375 24.3024 26.4375 24.75C26.4375 27.2861 27.445 29.7184 29.2383 31.5117C31.0316 33.305 33.4639 34.3125 36 34.3125C38.5361 34.3125 40.9684 33.305 42.7617 31.5117C44.555 29.7184 45.5625 27.2861 45.5625 24.75C45.5625 24.3024 45.7403 23.8732 46.0568 23.5568C46.3732 23.2403 46.8024 23.0625 47.25 23.0625C47.6976 23.0625 48.1268 23.2403 48.4432 23.5568C48.7597 23.8732 48.9375 24.3024 48.9375 24.75Z" fill="#C1C1C1"/>
</svg>
