<svg height="512" viewBox="0 0 512 512" width="512" xmlns="http://www.w3.org/2000/svg"><g id="flat"><circle cx="256" cy="256" fill="#ecebe6" r="232"/><circle cx="256" cy="256" fill="#a3612d" r="152"/><path d="m413.886 182.943v63.694a78.941 78.941 0 0 1 -49.624 73.3 112.769 112.769 0 0 1 -95.527-5.511l-22.6-12.225h-68.022a80 80 0 0 1 -80-80v-38.201z" fill="#dc2d3b"/><path d="m246.13 302.2h-68.02a80 80 0 0 1 -80-80v-38.2l148.01-.5-.12 80.5z" fill="#cdccc8"/><path d="m364.262 281.736a112.765 112.765 0 0 1 -95.527-5.512l-22.603-12.224-54.814-22.868c-26.175 0-62.618 10.3-77.213-9.136a79.647 79.647 0 0 1 -15.991-48 80 80 0 0 1 80-80h109.886l46.943 5c5.45 0 10.771-4.448 15.91-3.4a78.97 78.97 0 0 1 63.033 77.339v25.5a78.941 78.941 0 0 1 -49.624 73.301z" fill="#ff3444"/><path d="m350.92 105.62-7.87 11.8a41.983 41.983 0 0 0 -7.05 23.3v63.28a60 60 0 0 1 -60 60h-97.89a79.9 79.9 0 0 1 -64.01-32h159.9a30 30 0 0 0 30-30v-61.28a41.983 41.983 0 0 0 -7.05-23.3l-8.95-13.42h46.94a79.392 79.392 0 0 1 15.98 1.62z" fill="#dcdbd6"/><g fill="#e82f3e"><circle cx="160" cy="152" r="16"/><path d="m183.993 208a8 8 0 0 1 -6.5-12.651l32-44.8a8 8 0 1 1 13.02 9.3l-32 44.8a7.99 7.99 0 0 1 -6.52 3.351z"/><path d="m215.993 208a8 8 0 0 1 -6.5-12.651l32-44.8a8 8 0 1 1 13.02 9.3l-32 44.8a7.99 7.99 0 0 1 -6.52 3.351z"/><path d="m247.993 208a8 8 0 0 1 -6.5-12.651l32-44.8a8 8 0 1 1 13.02 9.3l-32 44.8a7.99 7.99 0 0 1 -6.52 3.351z"/></g><circle cx="360" cy="368" fill="#f38338" r="24"/><circle cx="325" cy="400" fill="#ff3444" r="24"/><path d="m192.666 436.778-9.637-8.251-1.492-19.256a8 8 0 0 0 -15.953 1.237l.256 3.3-7.119-6.095-1.492-19.256a8 8 0 0 0 -15.952 1.236l.256 3.3-7.12-6.1-1.492-19.256a8 8 0 1 0 -15.952 1.237l.256 3.3-7.12-6.1-1.492-19.255a8 8 0 0 0 -15.952 1.236l.256 3.3-15.717-13.432a8 8 0 1 0 -10.4 12.154l15.71 13.453-3.3.256a8 8 0 0 0 .609 15.977q.312 0 .627-.024l19.254-1.492 7.119 6.095-3.3.256a8 8 0 0 0 .61 15.976q.31 0 .626-.023l19.256-1.492 7.119 6.094-3.3.256a8 8 0 0 0 .609 15.977q.312 0 .627-.024l19.256-1.492 7.118 6.095-3.3.256a8 8 0 0 0 .609 15.976q.312 0 .627-.023l19.256-1.492 9.637 8.251a8 8 0 0 0 10.406-12.155z" fill="#027e2a"/><circle cx="256" cy="408" fill="#eeb436" r="48"/><path d="m298.75 429.86a48.1 48.1 0 0 1 -9.57 12.82l-25.18-18.75v31.4a48.1 48.1 0 0 1 -16 0v-30.97l-24.44 19.02a48.42 48.42 0 0 1 -9.84-12.63l29.07-22.61-29.54-22a48.1 48.1 0 0 1 9.57-12.82l25.18 18.75v-31.4a48.1 48.1 0 0 1 16 0v30.97l24.44-19.02a48.42 48.42 0 0 1 9.84 12.63l-29.07 22.61z" fill="#ee9d0d"/></g></svg>